<?xml version="1.0" standalone="no"?>
<!DOCTYPE svg PUBLIC "-//W3C//DTD SVG 20010904//EN"
 "http://www.w3.org/TR/2001/REC-SVG-20010904/DTD/svg10.dtd">
<svg version="1.0" xmlns="http://www.w3.org/2000/svg"
 width="1200.000000pt" height="1200.000000pt" viewBox="0 0 1200.000000 1200.000000"
 preserveAspectRatio="xMidYMid meet">
<metadata>
Created by potrace 1.14, written by Peter Selinger 2001-2017
</metadata>
<g transform="translate(0.000000,1200.000000) scale(0.100000,-0.100000)"
fill="#000000" stroke="none">
<path d="M5718 11515 c-2 -1 -48 -5 -103 -9 -102 -6 -123 -8 -280 -27 -154
-17 -251 -32 -354 -54 -36 -7 -86 -16 -111 -20 -24 -4 -48 -9 -52 -11 -4 -3
-18 -7 -30 -9 -239 -44 -704 -195 -975 -316 -24 -10 -64 -28 -90 -40 -467
-206 -972 -536 -1403 -914 -74 -64 -390 -384 -464 -468 -242 -277 -471 -597
-651 -912 -81 -142 -255 -488 -255 -507 0 -8 -4 -18 -9 -23 -14 -16 -125 -300
-175 -450 -74 -221 -158 -538 -180 -677 -3 -21 -10 -57 -15 -80 -6 -24 -13
-65 -16 -93 -4 -27 -8 -57 -10 -65 -2 -8 -7 -37 -11 -65 -3 -27 -8 -57 -9 -66
-2 -9 -6 -52 -10 -95 -4 -43 -9 -88 -11 -98 -25 -136 -25 -878 1 -1038 2 -12
6 -53 10 -90 3 -37 8 -77 10 -90 2 -13 6 -45 10 -73 24 -196 81 -464 164 -770
41 -152 171 -509 237 -653 13 -29 24 -55 24 -58 0 -10 186 -378 218 -432 18
-29 32 -55 32 -58 0 -10 183 -298 254 -399 58 -84 153 -213 202 -275 26 -32
190 -227 224 -265 114 -129 432 -436 560 -541 19 -16 41 -35 49 -42 28 -27
261 -202 356 -268 505 -350 1068 -616 1650 -778 107 -30 231 -62 274 -71 9 -2
74 -15 144 -29 138 -28 349 -61 462 -71 39 -4 81 -8 95 -11 154 -25 832 -25
1035 0 17 2 61 7 98 11 37 3 76 8 85 10 9 1 46 6 82 10 36 4 67 8 70 10 3 2
27 6 53 9 26 4 71 11 100 17 29 6 66 13 82 16 17 2 77 16 135 30 58 13 112 26
120 28 167 36 570 166 715 230 17 8 75 32 130 55 424 177 953 500 1325 809
150 125 208 179 385 356 164 163 211 214 344 368 47 56 212 269 262 341 19 27
45 65 59 85 146 208 339 548 448 788 71 156 92 203 92 208 0 3 9 24 19 48 17
37 45 113 120 320 11 31 21 58 20 60 0 1 2 9 5 17 15 42 86 305 101 370 9 41
21 89 26 105 5 17 11 48 15 70 3 22 12 70 19 106 8 37 19 98 25 135 6 38 13
80 15 94 10 59 35 304 42 400 14 201 7 767 -11 905 -2 17 -7 62 -11 100 -3 39
-8 81 -10 95 -2 14 -7 45 -10 70 -10 75 -35 221 -51 300 -9 41 -18 85 -20 97
-35 179 -172 644 -232 783 -6 14 -24 59 -41 102 -16 42 -39 98 -51 125 -12 26
-28 64 -37 83 -39 88 -176 357 -238 465 -124 219 -307 491 -461 685 -13 16
-170 203 -214 255 -47 55 -395 401 -469 465 -61 54 -333 272 -421 338 -103 78
-419 278 -556 353 -72 39 -373 190 -429 214 -22 10 -53 23 -70 30 -470 204
-1060 359 -1555 410 -30 3 -76 8 -102 11 -26 3 -71 7 -100 10 -60 5 -695 14
-700 9z"/>
</g>
</svg>
